# xmcd
#
# Track frame offsets:
#	150
#	12737
#	24664
#	37127
#	54258
#	70753
#	86074
#	98632
#	123103
#	144370
#	158113
#	177373
#
# Disc length: 2796 seconds
#
# Revision: 1
# Processed by: cddbd v1.4PL0 Copyright (c) Steve Scherf et al.
# Submitted via: audiograbber 1.81.03
#
DISCID=9a0aea0c
DTITLE=Atacama - Musica de los Andes
DYEAR=1900
DGENRE=
TTITLE0=Leno Verde
TTITLE1=Los Refranes
TTITLE2=Gerro Negro
TTITLE3=Otavaleno
TTITLE4=3 D  Mayo
TTITLE5=Los Caporales
TTITLE6=Carnaval Del Valle
TTITLE7=El Condor Pasa
TTITLE8=Isla Saca
TTITLE9=Balicha
TTITLE10=Recuerdos
TTITLE11=El Sicuri
EXTD=
EXTT0=
EXTT1=
EXTT2=
EXTT3=
EXTT4=
EXTT5=
EXTT6=
EXTT7=
EXTT8=
EXTT9=
EXTT10=
EXTT11=
PLAYORDER=
